<svg xmlns="http://www.w3.org/2000/svg" width="108" height="30" fill-rule="evenodd"><path fill="#1f7ae0" d="M7.468 23.537l-5.393-2.609a.5.5 0 0 1-.2-.728l2.7-4a.51.51 0 0 1 .891.091l2.7 6.605a.5.5 0 0 1-.698.641h0zm18.531-1.187V8.827c-.001-.176-.094-.339-.245-.43s-.338-.097-.495-.015l-11.983 6.164a.5.5 0 0 0-.273.444v13.523c.001.176.094.339.245.43s.338.097.495.015l11.987-6.164a.5.5 0 0 0 .269-.444h0zm-3.506-5.22c-.089 2.075-1.217 3.965-3 5.029-1.653.85-2.994-.021-2.993-1.949.089-2.075 1.216-3.966 3-5.03 1.653-.851 2.993.024 2.993 1.949v.001zm-9.98-4.381L24.39 6.67a.5.5 0 0 0-.01-.895L12.605.054a.51.51 0 0 0-.456 0L.272 6.132a.5.5 0 0 0 .01.895l11.78 5.721a.51.51 0 0 0 .451 0v.001zm-.036-9.259l5.018 2.437a.5.5 0 0 1 .009.895l-4.868 2.492c-.144.071-.313.071-.457 0L7.161 6.877a.5.5 0 0 1-.009-.895L12.02 3.49c.144-.072.313-.072.457-.001v.001z"/><path fill="#81878c" d="M36.822 2.219c1.541 0 2.587.824 2.624 2.029H38.01c-.049-.559-.501-.904-1.219-.904-.682 0-1.127.32-1.127.793 0 .369.297.615.941.768l1.17.258c1.312.307 1.825.812 1.825 1.777C39.601 8.17 38.456 9 36.797 9 35.151 9 34.105 8.188 34 6.953h1.516c.093.597.557.928 1.337.928.749 0 1.213-.301 1.213-.787 0-.381-.241-.584-.879-.743l-1.194-.277c-1.213-.283-1.826-.91-1.826-1.85 0-1.192 1.058-2.004 2.655-2.004zm4.016.136h1.48v1.131h.031c.285-.756.978-1.254 1.869-1.254.928 0 1.591.473 1.832 1.309h.037c.316-.806 1.095-1.309 2.042-1.309 1.294 0 2.142.866 2.142 2.17V8.87H48.73V4.777c0-.799-.421-1.254-1.177-1.254-.742 0-1.25.541-1.25 1.322V8.87h-1.498V4.697c0-.726-.445-1.174-1.163-1.174-.743 0-1.262.572-1.262 1.359V8.87h-1.541V2.355zm10.657 4.653c0-1.155.897-1.85 2.494-1.949l1.733-.099v-.467c0-.682-.464-1.076-1.226-1.076-.73 0-1.194.35-1.294.892h-1.43c.069-1.217 1.114-2.09 2.786-2.09 1.627 0 2.685.855 2.685 2.164v4.487h-1.485V7.832h-.031c-.377.707-1.201 1.144-2.043 1.144-1.269 0-2.19-.793-2.19-1.967zm7.284 1.862V0h1.541v8.87h-1.541zm3.15 0V0h1.541v8.87h-1.541zm7.433-4.192c-.124-.695-.613-1.217-1.436-1.217-.971 0-1.596.811-1.596 2.151 0 1.365.631 2.151 1.609 2.151.779 0 1.287-.443 1.429-1.18h1.454C70.699 8.041 69.566 9 67.92 9c-1.919 0-3.156-1.273-3.156-3.387 0-2.084 1.238-3.393 3.144-3.393 1.733 0 2.804 1.088 2.909 2.459h-1.455zm2.37 2.33c0-1.155.897-1.85 2.493-1.949l1.733-.099v-.467c0-.682-.464-1.076-1.225-1.076-.73 0-1.194.35-1.294.892h-1.429c.068-1.217 1.114-2.09 2.784-2.09 1.628 0 2.686.855 2.686 2.164v4.487h-1.485V7.832h-.031c-.378.707-1.201 1.144-2.042 1.144-1.268 0-2.19-.793-2.19-1.967zm9.778-4.789c1.541 0 2.587.824 2.624 2.029h-1.436c-.049-.559-.501-.904-1.219-.904-.681 0-1.127.32-1.127.793 0 .369.297.615.941.768l1.17.258c1.312.307 1.825.812 1.825 1.777C84.289 8.17 83.144 9 81.485 9c-1.646 0-2.692-.812-2.797-2.047h1.516c.093.597.557.928 1.337.928.749 0 1.213-.301 1.213-.787 0-.381-.241-.584-.879-.743l-1.194-.277c-1.213-.283-1.826-.91-1.826-1.85 0-1.192 1.058-2.004 2.655-2.004zm9.803 4.702C91.115 8.151 89.964 9 88.41 9c-1.968 0-3.156-1.285-3.156-3.363 0-2.059 1.201-3.418 3.094-3.418 1.863 0 3.026 1.285 3.026 3.264v.498h-4.586v.092c0 1.045.644 1.746 1.653 1.746.718 0 1.262-.356 1.429-.897h1.443zm-15.355-.467v-.498l-1.516.092c-.743.049-1.17.381-1.17.897 0 .535.446.873 1.114.873.872 0 1.572-.578 1.572-1.364zm10.842-1.482h3.063c-.031-.922-.625-1.567-1.51-1.567-.867 0-1.492.657-1.553 1.567zM55.723 6.455v-.498l-1.517.092c-.742.049-1.17.381-1.17.897 0 .535.446.873 1.114.873.873 0 1.573-.578 1.573-1.364z"/><path fill="#1f7ae0" fill-rule="nonzero" d="M39.272 26.198c-4.212 0-6.552-2.736-6.552-6.552v-.144c0-3.87 2.754-6.57 6.552-6.57 2.862 0 5.418 1.314 5.724 4.5h-2.898c-.252-1.512-1.242-2.196-2.79-2.196-2.232 0-3.546 1.674-3.546 4.302v.144c0 2.484 1.062 4.266 3.582 4.266 2.16 0 3.042-1.242 3.096-2.718h-2.898v-2.124h5.778v1.368c0 3.438-2.196 5.724-6.048 5.724zm10.488 0c-1.71 0-3.15-.828-3.15-2.808 0-2.196 2.016-3.024 4.896-3.024h1.062v-.378c0-1.116-.342-1.728-1.53-1.728-1.026 0-1.494.522-1.602 1.332H46.97c.162-2.232 1.926-3.222 4.23-3.222s3.942.936 3.942 3.492V26h-2.538v-1.134c-.54.756-1.368 1.332-2.844 1.332zm.774-1.818c1.152 0 2.034-.63 2.034-1.674v-.792H51.56c-1.512 0-2.394.324-2.394 1.332 0 .684.414 1.134 1.368 1.134zm10.308 1.8c-1.98 0-3.042-1.008-3.042-2.97v-4.77h-1.206v-1.854H57.8v-2.034h2.592v2.034h1.98v1.854h-1.98v4.536c0 .756.378 1.116 1.044 1.116a2.43 2.43 0 0 0 .99-.18v2.016c-.36.126-.882.252-1.584.252zm7.716.018c-2.844 0-4.914-1.782-4.914-4.788v-.144c0-2.97 2.106-4.896 4.842-4.896 2.43 0 4.59 1.422 4.59 4.788v.72H66.29c.072 1.566.918 2.466 2.34 2.466 1.206 0 1.8-.522 1.962-1.314h2.466c-.306 2.034-1.926 3.168-4.5 3.168zm-2.232-5.922h4.212c-.09-1.422-.81-2.106-2.052-2.106-1.17 0-1.962.774-2.16 2.106zM76.634 26l-2.862-9.414h2.736l1.674 6.336L80 16.586h2.142l1.656 6.336 1.782-6.336h2.502L85.112 26h-2.556l-1.602-5.904L79.226 26h-2.592zm15.168.198c-1.71 0-3.15-.828-3.15-2.808 0-2.196 2.016-3.024 4.896-3.024h1.062v-.378c0-1.116-.342-1.728-1.53-1.728-1.026 0-1.494.522-1.602 1.332h-2.466c.162-2.232 1.926-3.222 4.23-3.222s3.942.936 3.942 3.492V26h-2.538v-1.134c-.54.756-1.368 1.332-2.844 1.332zm.774-1.818c1.152 0 2.034-.63 2.034-1.674v-.792h-1.008c-1.512 0-2.394.324-2.394 1.332 0 .684.414 1.134 1.368 1.134zm7.788 4.824l1.656-4.158-3.744-8.46h2.808l2.286 5.652 2.106-5.652h2.502l-5.094 12.618h-2.52z"/></svg>
